<?xml version="1.0" encoding="UTF-8"?><svg id="a" xmlns="http://www.w3.org/2000/svg" width="37" height="64" xmlns:xlink="http://www.w3.org/1999/xlink" viewBox="0 0 37 64"><defs><clipPath id="b"><rect width="37" height="64" fill="none"/></clipPath></defs><g clip-path="url(#b)"><g><path d="M33.5,63.92H3.47C1.56,63.92,.01,62.36,.01,60.44v-11.74H.32v11.74c0,1.74,1.41,3.16,3.14,3.16h30.03c1.73,0,3.14-1.42,3.14-3.16v-11.74h.31v11.74c0,1.92-1.55,3.47-3.45,3.47Z" fill="#274869"/><path d="M36.95,48.82h-.31V3.54c0-1.74-1.41-3.16-3.14-3.16H3.47C1.73,.37,.32,1.79,.32,3.54V48.82H.01V3.54C.01,1.62,1.56,.06,3.47,.06h30.03c1.9,0,3.45,1.56,3.45,3.47V48.82Z" fill="#274869"/><path d="M36.8,60.44v-11.74H.17v11.74c0,1.83,1.48,3.32,3.3,3.32h30.03c1.81,0,3.3-1.49,3.3-3.32Zm-30.13-6.56h0c0-.92,.68-1.67,1.66-1.67,.6,0,.96,.2,1.26,.5l-.45,.52c-.25-.22-.5-.36-.82-.36-.54,0-.92,.45-.92,1h0c0,.56,.38,1.02,.92,1.02,.36,0,.59-.15,.84-.38l.45,.45c-.33,.35-.69,.57-1.31,.57-.94,0-1.63-.73-1.63-1.65Zm-2.16-1.64h.65l1.37,3.23h-.73l-.29-.72h-1.35l-.29,.72h-.72l1.37-3.23Zm.74,1.89l-.42-1.04-.42,1.04h.85Zm4.69-.25h0c0-.92,.68-1.67,1.66-1.67,.6,0,.96,.2,1.26,.5l-.45,.52c-.25-.22-.5-.36-.82-.36-.54,0-.92,.45-.92,1h0c0,.56,.38,1.02,.92,1.02,.36,0,.59-.15,.84-.38l.45,.45c-.33,.35-.69,.57-1.31,.57-.94,0-1.63-.73-1.63-1.65Zm3.5-1.61h1.46c.41,0,.72,.12,.93,.33,.18,.18,.27,.43,.27,.73h0c0,.53-.28,.85-.68,1l.78,1.15h-.82l-.68-1.03h-.55v1.03h-.7v-3.21Zm1.41,1.56c.34,0,.54-.18,.54-.45h0c0-.31-.21-.47-.55-.47h-.7v.92h.71Zm1.88-1.56h2.41v.63h-1.71v.65h1.5v.63h-1.5v.67h1.73v.63h-2.43v-3.21Zm3.05,0h1.24c1,0,1.7,.69,1.7,1.59h0c0,.91-.69,1.61-1.7,1.61h-1.24v-3.21Zm.7,.64v1.93h.54c.57,0,.96-.39,.96-.96h0c0-.58-.39-.98-.96-.98h-.54Zm2.89-.64h.7v3.21h-.7v-3.21Zm2.24,.65h-.97v-.65h2.64v.65h-.97v2.56h-.7v-2.56Zm2.21-.65h2.41v.63h-1.71v.65h1.5v.63h-1.5v.67h1.73v.63h-2.43v-3.21Zm3.05,0h1.24c1,0,1.7,.69,1.7,1.59h0c0,.91-.69,1.61-1.7,1.61h-1.24v-3.21Zm.7,2.57h.54c.57,0,.96-.39,.96-.96h0c0-.58-.39-.98-.96-.98h-.54v1.93Zm-23.81,3.78h0c0-.92,.68-1.67,1.66-1.67,.6,0,.96,.2,1.26,.5l-.45,.52c-.25-.22-.5-.36-.82-.36-.54,0-.92,.45-.92,1h0c0,.56,.38,1.02,.92,1.02,.36,0,.59-.15,.84-.38l.45,.45c-.33,.35-.69,.57-1.31,.57-.94,0-1.63-.73-1.63-1.65Zm3.55-1.61h.7v1.27h1.29v-1.27h.7v3.21h-.7v-1.29h-1.29v1.29h-.7v-3.21Zm4.6-.02h.65l1.37,3.23h-.73l-.29-.72h-1.35l-.29,.72h-.72l1.37-3.23Zm.74,1.89l-.42-1.04-.42,1.04h.85Zm1.81-1.86h1.46c.41,0,.72,.12,.93,.33,.18,.18,.27,.43,.27,.73h0c0,.53-.28,.85-.68,1l.78,1.15h-.82l-.68-1.03h-.55v1.03h-.7v-3.21Zm1.41,1.56c.34,0,.54-.18,.54-.45h0c0-.31-.21-.47-.55-.47h-.7v.92h.71Zm1.95-1.56h.7v3.21h-.7v-3.21Zm2.28,.65h-.97v-.65h2.64v.65h-.97v2.56h-.7v-2.56Zm3.15,1.29l-1.23-1.94h.82l.76,1.29,.77-1.29h.8l-1.23,1.93v1.28h-.7v-1.26h0Z" fill="#274869" fill-rule="evenodd"/><path d="M26.19,29.59H10.71l-.56,1.86h4.12l.79,2.57h6.78l.78-2.57h4.13l-.56-1.86Z" fill="#274869"/><path d="M13.24,19.13c-.57,.8-.8,1.77-.65,2.74,.15,.97,.68,1.82,1.47,2.4l3.7,2.71c.2,.15,.33,.36,.37,.6,.04,.24-.02,.49-.16,.69l.56,.41,1.96-2.72c.46-.63,.7-1.38,.7-2.15,0-.19-.02-.39-.05-.59-.15-.97-.67-1.82-1.47-2.4l-3.7-2.71c-.2-.14-.33-.36-.37-.6,0-.05,0-.1,0-.15,0-.19,.06-.38,.17-.54h0s-.56-.41-.56-.41c0,0-1.96,2.72-1.96,2.72Z" fill="#274869"/><path d="M15.47,8.25c-.66,.92-1.01,2.01-1.01,3.12,0,.28,.02,.57,.07,.85,.22,1.41,.98,2.64,2.13,3.48l4.66,3.39c.61,.45,1.02,1.11,1.14,1.87,.02,.15,.04,.3,.04,.45,0,.6-.19,1.18-.54,1.67l.44,.33,3.67-5.1c.83-1.15,1.17-2.56,.94-3.97-.22-1.41-.98-2.64-2.13-3.48l-5.62-4.11c-.35-.26-.59-.64-.65-1.07-.07-.43,.03-.87,.29-1.23l-.45-.32-2.97,4.12Z" fill="#274869"/><path d="M5.96,35.57h4.24c1.04,0,1.87,.29,2.39,.81,.42,.42,.63,.93,.63,1.56v.03c0,1.04-.55,1.61-1.2,1.98,1.06,.41,1.71,1.02,1.71,2.26v.03c0,1.68-1.36,2.52-3.42,2.52H5.96v-9.19Zm3.81,3.71c.89,0,1.45-.29,1.45-.97v-.02c0-.6-.47-.95-1.32-.95h-1.98v1.94h1.85Zm.53,3.7c.89,0,1.42-.31,1.42-1v-.03c0-.62-.46-1-1.49-1h-2.32v2.02h2.39Z" fill="#274869"/><path d="M14.6,35.57h4.24c1.05,0,1.87,.29,2.39,.81,.42,.42,.63,.93,.63,1.56v.03c0,1.04-.55,1.61-1.2,1.98,1.06,.41,1.71,1.02,1.71,2.26v.03c0,1.68-1.36,2.52-3.42,2.52h-4.35v-9.19Zm3.81,3.71c.89,0,1.45-.29,1.45-.97v-.02c0-.6-.47-.95-1.32-.95h-1.98v1.94h1.85Zm.53,3.7c.89,0,1.42-.31,1.42-1v-.03c0-.62-.46-1-1.49-1h-2.32v2.02h2.39Z" fill="#274869"/><path d="M23.24,35.57h4.24c1.04,0,1.87,.29,2.39,.81,.42,.42,.62,.93,.62,1.56v.03c0,1.04-.55,1.61-1.2,1.98,1.06,.41,1.71,1.02,1.71,2.26v.03c0,1.68-1.36,2.52-3.42,2.52h-4.35v-9.19h0Zm3.81,3.71c.89,0,1.45-.29,1.45-.97v-.02c0-.6-.47-.95-1.32-.95h-1.98v1.94h1.85Zm.54,3.7c.89,0,1.42-.31,1.42-1v-.03c0-.62-.46-1-1.49-1h-2.32v2.02h2.39Z" fill="#274869"/></g></g></svg>