<?xml version="1.0" encoding="UTF-8"?><svg id="a" xmlns="http://www.w3.org/2000/svg" width="73.61" height="64" viewBox="0 0 73.61 64"><path d="M31.28,0h.06c.99,3.19,1.88,6.42,2.81,9.63-.99-.88-1.71-2.01-2.63-2.96-.04,1.68,0,3.36-.02,5.03,5.11,.05,10.18,2.01,13.93,5.48,.24,.23,.5,.43,.77,.61,.33,.55,.83,.96,1.22,1.46,3.11,3.68,4.88,8.47,4.89,13.29,2.91,0,5.81,0,8.72,0,.42,0,.84-.03,1.25,.03,.21,.04,.12,.25,.13,.39-3.37,0-6.73,0-10.1,0,0,5.18-2.06,10.32-5.6,14.1-.19,.2-.35,.43-.48,.67-.44,.22-.77,.58-1.13,.9-3.38,2.96-7.73,4.79-12.21,5.1-.46,.02-.92,.05-1.38,.08,0,2.96,0,5.92,0,8.89-.04,.43,.14,.95-.2,1.29h-.1c-.17-.51-.11-1.05-.12-1.58,0-2.87,0-5.73,0-8.6-.51-.03-1.03-.06-1.54-.09-4.3-.33-8.47-2.06-11.77-4.83-.5-.4-.92-.88-1.46-1.23-.23-.36-.51-.69-.81-1-3.35-3.73-5.21-8.7-5.27-13.7-3.34,0-6.68,.02-10.02-.01-.33,.08-.26-.46,.02-.4,3.33-.03,6.67,0,10-.01,.06-.74,.06-1.49,.15-2.23,.46-4.08,2.17-8.01,4.82-11.14,.35-.43,.83-.79,.98-1.36,.08-.01,.23-.03,.3-.04,1.7-1.67,3.66-3.06,5.82-4.07,2.73-1.32,5.75-1.96,8.77-2.02,0-1.67,0-3.34,0-5.01-.87,.98-1.65,2.03-2.57,2.95,.07-.35,.15-.69,.25-1.03,.84-2.87,1.67-5.75,2.51-8.61Zm.25,2.25c-.05,1.03,0,2.07-.03,3.1,.02,.22-.05,.47,.11,.65,.46,.59,.92,1.18,1.41,1.74-.46-1.84-.97-3.68-1.49-5.5Zm-2.99,10.06c-4.4,.57-8.58,2.65-11.72,5.78,.08,.04,.24,.13,.33,.17,1.58-1.46,3.34-2.77,5.29-3.7,2.64-1.31,5.58-1.96,8.51-2.05,.02-.1,.07-.31,.09-.41-.83,.07-1.67,.08-2.49,.21Zm3-.21c.02,.1,.06,.3,.08,.4,1.46,.09,2.92,.2,4.34,.56,3.5,.81,6.74,2.61,9.34,5.08,.08-.05,.25-.16,.34-.22-1.91-1.82-4.15-3.31-6.61-4.3-2.37-.98-4.93-1.45-7.49-1.53Zm-14.02,6.42c3.54,2.29,7.08,4.58,10.64,6.85,.92-4.14,1.78-8.29,2.7-12.44-4.94,.11-9.8,2.13-13.34,5.58Zm14.2-5.59c.89,4.11,1.78,8.22,2.7,12.33,3.53-2.25,7.04-4.52,10.52-6.84-3.52-3.4-8.33-5.35-13.22-5.49Zm-.19,1.32c-.03,5.65-.01,11.3,0,16.95,.8-1.91,1.63-3.81,2.39-5.73-.77-3.75-1.56-7.49-2.4-11.22Zm14.33,4.49c3.52,3.62,5.62,8.63,5.62,13.69,.14,.03,.27,.05,.41,.08,.01-5.23-2.19-10.36-5.79-14.11-.08,.11-.16,.22-.24,.34ZM10.67,32.52c.1-.04,.29-.11,.38-.14,.07-.63,.05-1.26,.15-1.89,.46-4.23,2.3-8.31,5.2-11.42,.22-.14,.12-.4,0-.57-3.58,3.74-5.69,8.84-5.73,14.03Zm28.17-2.88c.18,.06,.37,.12,.56,.16,3.91,.85,7.81,1.7,11.72,2.54-.13-4.88-2.07-9.72-5.5-13.23-2.26,3.51-4.52,7.02-6.78,10.53Zm-27.34,2.67c4.07-.89,8.15-1.76,12.21-2.66-2.29-3.48-4.56-6.98-6.87-10.45-3.29,3.53-5.27,8.27-5.34,13.11Zm6.61-12.86c1.21,1.28,2.51,2.46,3.74,3.72,2.78,2.72,5.53,5.47,8.32,8.17-.62-1.71-1.38-3.38-2.04-5.07-.1-.22-.16-.49-.39-.61-3.21-2.07-6.4-4.17-9.63-6.22Zm25.13,1.74c-3.53,3.55-7.12,7.04-10.63,10.61,1.83-.69,3.62-1.48,5.43-2.21,.44-.13,.6-.59,.85-.93,1.83-2.89,3.74-5.72,5.56-8.62-.43,.36-.81,.76-1.2,1.15Zm-30.38,11.31c.31,.02,.62,.03,.93,.03,5.3-.01,10.61,.02,15.92,0-1.91-.81-3.84-1.58-5.76-2.37-3.69,.8-7.41,1.52-11.09,2.35Zm19.84,.48c1.99,.77,3.94,1.67,5.94,2.41,3.8-.76,7.57-1.62,11.37-2.38-.37-.04-.73-.05-1.1-.04-5.4,.01-10.8-.02-16.21,.02Zm-22.03,.02c.05,5.2,2.16,10.34,5.8,14.06,.05-.07,.14-.22,.18-.3-.67-.84-1.43-1.63-2.01-2.54-2.27-3.24-3.46-7.17-3.58-11.11-.1-.03-.29-.09-.39-.12Zm40.84,.13c-.04,5.06-2.14,10.03-5.65,13.67,.05,.08,.15,.24,.2,.32,3.66-3.71,5.83-8.87,5.84-14.08-.1,.02-.29,.07-.39,.1Zm-40,.06c.08,4.86,2.06,9.66,5.42,13.18,2.29-3.5,4.58-7.01,6.86-10.51-4.09-.89-8.18-1.79-12.28-2.66Zm27.32,2.7c2.24,3.53,4.51,7.04,6.8,10.53,3.4-3.52,5.37-8.33,5.5-13.22-4.1,.91-8.2,1.78-12.3,2.69Zm-14.31,.12c-.24,.08-.35,.32-.48,.51-1.97,3-4,5.97-5.94,8.99,.8-.71,1.54-1.5,2.31-2.25,3.2-3.21,6.47-6.36,9.65-9.59-1.85,.77-3.69,1.56-5.52,2.34Zm7.75-1.98c.72,1.85,1.51,3.67,2.26,5.5,.08,.28,.35,.42,.58,.57,3.05,1.95,6.03,4.01,9.11,5.92-.18-.21-.37-.41-.56-.6-3.81-3.79-7.57-7.62-11.38-11.4Zm-3.48,5.77c-.15,.29-.02,.62,.03,.92,.77,3.58,1.47,7.19,2.28,10.76,.02-5.77,.01-11.54,0-17.31-.76,1.88-1.54,3.75-2.31,5.62Zm-11.15,7.26c3.51,3.4,8.33,5.41,13.22,5.5-.86-4.11-1.78-8.2-2.65-12.3-3.54,2.24-7.06,4.51-10.57,6.8Zm14.11,5.5c4.84-.08,9.61-2.06,13.13-5.38,.01-.19-.18-.26-.31-.35-3.38-2.18-6.75-4.39-10.14-6.54-.95,4.08-1.78,8.18-2.68,12.27Zm-14.81-5.04c3.72,3.67,8.88,5.81,14.1,5.86-.02-.09-.07-.28-.09-.37-.69-.1-1.39-.08-2.07-.18-4.34-.5-8.49-2.49-11.62-5.54-.08,.06-.24,.17-.31,.23Zm15.82,5.4c-.37,.02-.74,.02-1.1,.09-.03,.09-.08,.28-.11,.37,5.22-.04,10.4-2.16,14.1-5.84-.08-.05-.24-.15-.33-.2-3.36,3.26-7.89,5.29-12.57,5.58Z" fill="#274869"/><path d="M46.94,51.5c.95-.54,2.08-.43,3.11-.25,.02,.22,.05,.44,.07,.66-1.02-.24-2.3-.46-3.13,.36-.85,.91-.83,2.49-.05,3.44,.83,.85,2.15,.66,3.18,.37-.03,.22-.05,.44-.08,.66-1.18,.21-2.53,.31-3.52-.49-1.4-1.2-1.25-3.85,.41-4.75Z" fill="#274869"/><path d="M51.44,52.31h.62c0,.63,0,1.27,0,1.91,.88,0,1.76,0,2.63,0,0-.64,0-1.27,0-1.9,.2,0,.4,0,.61,0,0,1.5,0,2.99,0,4.49-.2,0-.4,0-.6,0,0-.71,0-1.42,0-2.13-.88,0-1.76-.02-2.64,.01,.01,.71,0,1.41,0,2.12-.21,0-.41,0-.61,.01,0-1.5,0-2.99,0-4.49Z" fill="#274869"/><path d="M58,52.3c.25,0,.5,0,.75,.01,.6,1.5,1.22,2.99,1.82,4.49-.25-.04-.67,.12-.76-.22-.23-.55-.42-1.12-.64-1.67-.59,0-1.17,0-1.76,0-.29,.63-.56,1.26-.85,1.89-.23,0-.45,0-.68,0,.69-1.51,1.4-3,2.13-4.49Zm-.44,2.18c.48,0,.97,0,1.45,0-.2-.57-.44-1.13-.68-1.69-.27,.55-.51,1.13-.76,1.69Z" fill="#274869"/><path d="M61.13,52.31c.77,.03,1.55-.08,2.31,.08,.85,.22,.97,1.52,.28,1.99-.26,.2-.6,.25-.91,.3,.5,.69,.97,1.4,1.44,2.11-.25-.05-.61,.11-.78-.15-.48-.76-.93-1.53-1.41-2.29,.47,.01,1.09,.07,1.37-.4,.26-.37,.14-1.11-.38-1.15-.43-.04-.86-.01-1.29-.02,0,1.34,0,2.67,0,4.01-.21,0-.41,0-.62,0,0-1.49,0-2.99,0-4.48Z" fill="#274869"/><path d="M65.22,52.31c.2,0,.41,0,.61,0,0,1.5,0,2.99,0,4.49-.21,0-.41,0-.61,0,0-1.5,0-2.99,0-4.49Z" fill="#274869"/><path d="M66.63,52.31c1.14,0,2.28,0,3.41,0,0,.12,0,.36,0,.47-.47,0-.93,0-1.4,0,0,1.34,.02,2.68-.01,4.02-.2-.01-.4-.02-.6-.03,0-1.33,0-2.66,0-4-.47,0-.94,0-1.41,0v-.47Z" fill="#274869"/><path d="M70.29,52.32c.23,0,.46,0,.69,0,.38,.68,.77,1.36,1.15,2.04,.51-.7,.75-1.63,1.48-2.15v.8c-.38,.63-.84,1.21-1.14,1.87-.07,.64,0,1.28-.05,1.93-.21,0-.42-.01-.63-.02-.03-.67,.04-1.34-.04-2-.41-.87-1.01-1.63-1.46-2.48Z" fill="#274869"/><path d="M34.04,57.92c.33,0,.65,0,.98,0,1.1,1.56,2.18,3.13,3.29,4.67,.02-1.56,0-3.12,.01-4.67,.24,0,.48,0,.72,0,0,1.86,0,3.72,0,5.58-.33,0-.66,0-.98-.01-1.09-1.55-2.18-3.1-3.28-4.64-.02,1.55,0,3.11-.01,4.66-.24-.01-.49-.02-.73-.03,0-1.85,0-3.7,0-5.55Z" fill="#274869"/><path d="M52.38,59.38c.89-.63,2.04-.5,3.03-.26,.01,.13,.04,.4,.06,.53-.78-.25-1.67-.37-2.44-.05-1.15,.54-1.32,2.3-.39,3.12,.68,.54,1.65,.42,2.44,.21,0-.51,0-1.02,0-1.53-.34,0-.67,0-1.01,0,0-.11,0-.32,0-.43,.54,0,1.08,0,1.62,0,0,.79,0,1.59,0,2.39-1.07,.17-2.27,.43-3.27-.14-1.32-.8-1.31-2.99-.04-3.84Z" fill="#274869"/><path d="M66.56,58.98c1.01-.21,2.22,.18,2.69,1.16,.49,1.02,.28,2.48-.75,3.09-.91,.51-2.12,.48-2.98-.11-.91-.71-1.05-2.11-.51-3.09,.31-.58,.93-.92,1.56-1.04Zm-.09,.51c-1.49,.44-1.55,2.98-.09,3.5,.66,.2,1.46,.16,1.98-.33,.64-.67,.66-1.79,.2-2.56-.44-.68-1.36-.79-2.09-.61Z" fill="#274869"/><path d="M39.86,63.49c.69-1.5,1.4-2.98,2.1-4.47h.76c.61,1.49,1.21,2.98,1.82,4.47-.23,0-.45,0-.68,0-.23-.64-.5-1.26-.74-1.9-.58,0-1.17,0-1.75,0-.28,.63-.56,1.27-.86,1.89-.22,0-.43,0-.65,0Zm1.66-2.3c.49,0,.98,0,1.47,0-.24-.56-.46-1.14-.71-1.69-.25,.57-.5,1.14-.76,1.7Z" fill="#274869"/><path d="M44.41,59.03c.21,0,.41,0,.62-.01,.51,1.31,.98,2.65,1.52,3.95,.6-1.31,1.16-2.64,1.78-3.95,.21,0,.42,0,.63,.01-.62,1.43-1.31,2.82-1.95,4.24-.1,.39-.58,.19-.87,.23-.56-1.5-1.16-2.97-1.72-4.46Z" fill="#274869"/><path d="M49.67,59.02c.22,0,.44,0,.66,0,0,1.49,0,2.98,0,4.47-.22,0-.44,0-.66,0v-4.48Z" fill="#274869"/><path d="M56.18,63.48c.7-1.49,1.4-2.97,2.1-4.46h.75c.63,1.49,1.23,2.98,1.83,4.48-.23,0-.45,0-.68,0-.23-.62-.47-1.25-.69-1.88-.6-.03-1.2-.02-1.81,0-.25,.64-.54,1.26-.81,1.89-.23,0-.46-.01-.69-.02Zm2.44-3.98c-.24,.56-.51,1.11-.74,1.67,.48,.01,.96,0,1.44,0-.24-.55-.43-1.14-.7-1.68Z" fill="#274869"/><path d="M60.7,59.02c1.14,0,2.27,0,3.41,0,0,.11-.02,.34-.03,.46-.45-.01-.91-.01-1.36,0,0,1.34,0,2.68,0,4.03-.21,0-.42,0-.64,0,0-1.34,0-2.68,0-4.02-.46,0-.91,0-1.37,0,0-.11,0-.34,0-.45Z" fill="#274869"/><path d="M70.65,63.5c0-1.49,0-2.98,0-4.48,.6,0,1.21-.02,1.81,0,.47-.01,.91,.21,1.15,.61v1.01c-.25,.48-.76,.69-1.27,.75,.42,.63,.87,1.23,1.27,1.87v.23c-.19,0-.38,0-.56,0-.51-.8-.97-1.63-1.48-2.42,.37-.03,.78,.02,1.11-.18,.52-.28,.5-1.23-.1-1.4-.44-.07-.88-.03-1.32-.03,0,1.34,0,2.68,0,4.02-.2,0-.41,0-.61,0Z" fill="#274869"/></svg>