<?xml version="1.0" encoding="UTF-8"?><svg id="a" xmlns="http://www.w3.org/2000/svg" width="98.81" height="64" viewBox="0 0 98.81 64"><path d="M48.69,0h.18c.16,.08,.28,.22,.29,.4,.46,2.74,.91,5.48,1.37,8.22,4.96,0,9.92,0,14.88,0,.31,.01,.68-.06,.93,.18,.18,.15,.23,.39,.22,.61,0,9.03,0,18.07,0,27.1,0,.24-.03,.49,.02,.73,.11,.18,.27,.32,.4,.48,1.43,1.63,2.86,3.25,4.3,4.88,.18,.16,.11,.4,.09,.6-.19,.06-.42,.14-.58-.04-1.39-1.21-2.79-2.41-4.17-3.64-.03,.22-.03,.46-.2,.62-.15,.17-.39,.21-.61,.21-9.83,0-19.66,0-29.49,0-.32,0-.64,.03-.96-.03-.32-.07-.51-.4-.49-.72,0-3.1,0-6.2,0-9.3-1.21,.35-2.43,.69-3.65,1.02-.22,.08-.43-.04-.62-.12,0-.2,.01-.44,.23-.52,1.33-.67,2.67-1.32,4-1.98,0-1.21-.01-2.43,0-3.64-1.13-.11-2.25-.19-3.38-.29-.16-.01-.33-.05-.43-.2-.17-.23,0-.61,.29-.61,1.17-.09,2.34-.16,3.51-.25,0-4.58,0-9.17,0-13.75,0-.25-.02-.51,.02-.76,.05-.31,.37-.54,.68-.52,4.27,0,8.54,0,12.81,0,0-2.73,0-5.47,0-8.2-.03-.23,.12-.44,.34-.48Zm-.09,.4c-.01,6.49,0,12.98,0,19.47-3.93-3.2-7.85-6.4-11.78-9.6-.17-.16-.32,.14-.17,.26,3.34,4.19,6.69,8.37,10.03,12.55-5.12,.37-10.24,.73-15.37,1.1-.23,0-.13,.35,.07,.29,3.5,.3,7,.59,10.5,.89-2.32,1.18-4.63,2.35-6.95,3.53-1.33,.67-2.67,1.3-3.99,1.98-.09,.18,.14,.28,.28,.2,5.11-1.4,10.21-2.86,15.31-4.28-1.02,1.61-2.05,3.21-3.07,4.81-.11,.13,.06,.31,.19,.18,1.9-1.2,3.8-2.41,5.69-3.61,.2,3.58,.4,7.16,.59,10.73,0,.11,.05,.2,.1,.29,.09-.07,.24-.1,.26-.23,.99-3.79,1.97-7.59,2.96-11.39,5.88,5.14,11.76,10.27,17.64,15.41,.17,.25,.39-.14,.18-.26-4.74-5.41-9.48-10.82-14.22-16.24,2.33,0,4.66,0,6.99,0,.14,.02,.17-.16,.14-.26-.06-.07-.15-.09-.23-.13-2.83-.97-5.65-1.95-8.48-2.92,3.06-3.4,6.13-6.78,9.17-10.18-.04-.05-.11-.16-.14-.22-.26,.15-.51,.32-.76,.49-2.66,1.75-5.31,3.51-7.97,5.26,.13-1.32,.26-2.63,.39-3.95,.07-.21-.23-.32-.31-.12-1.17,1.7-2.33,3.41-3.49,5.11-1.1-6.39-2.2-12.79-3.26-19.19,.03-.23-.36-.22-.29,.01Z" fill="#274869"/><path d="M49.75,14.57l.27,.02c.47,2.81,.93,5.62,1.4,8.43,.58-.77,1.14-1.54,1.72-2.3,.05-.15,.3-.08,.26,.08-.12,.62-.3,1.22-.43,1.83,.89-.61,1.77-1.25,2.66-1.85,.16-.09,.26,.15,.14,.24-.95,1.03-1.94,2.02-2.89,3.05,1.19,.45,2.39,.88,3.58,1.33,.16,.04,.14,.27-.04,.25-1.03,.02-2.07,0-3.11,0,1.45,1.31,2.92,2.62,4.37,3.93,.15,.1,0,.38-.16,.23-1.9-1.31-3.77-2.65-5.66-3.96-.25,1.18-.49,2.37-.73,3.55,0,.2-.35,.22-.32,0-.14-1.03-.26-2.07-.39-3.11-.8,.49-1.59,1.01-2.4,1.49-.13,.12-.28-.07-.19-.19,.45-.69,.93-1.36,1.39-2.04-1.66,.34-3.33,.69-4.99,1.04-.13,.02-.28,.08-.4-.02,0-.09,.05-.17,.14-.2,.85-.34,1.72-.63,2.56-.98,.01-.04,.04-.13,.05-.17-.52-.1-1.05-.13-1.57-.22-.13-.02-.07-.19-.08-.28,1.33-.21,2.66-.4,3.99-.61-1.3-1.54-2.61-3.06-3.9-4.6-.14-.13,.06-.33,.19-.2,1.62,1.2,3.23,2.41,4.85,3.6-.09-2.22-.19-4.44-.28-6.66-.01-.56-.08-1.13-.05-1.69Z" fill="#274869"/><path d="M3.06,51.15c1.44-.85,3.14-1.26,4.81-1.18,1.15,0,2.3,.1,3.43,.33,.46,.1,.94,.11,1.41,.19,.13,.03,.12,.18,.11,.28-.09,.93-.13,1.86-.09,2.79,0,.15,.03,.34-.09,.45-.06,0-.17,.02-.23,.03-.15-.61-.23-1.3-.71-1.76-.95-.82-2.18-1.33-3.44-1.37-.7,0-1.42-.05-2.1,.13-1.06,.27-2.1,.83-2.72,1.76-.69,1.01-.9,2.26-.91,3.46-.03,1.56,.37,3.17,1.29,4.44,.73,1.02,1.81,1.79,3.02,2.15,.74,.23,1.53,.29,2.3,.28,.38-.01,.75-.09,1.11-.2,.23-.07,.39-.31,.39-.54-.01-1.33,0-2.65,0-3.98,0-.34-.15-.71-.48-.86-.36-.2-.78-.12-1.17-.19-.2-.08-.02-.33,.14-.31,.8-.04,1.6,.02,2.4,.03,.88,.03,1.75-.07,2.63-.03,.19-.01,.2,.19,.18,.33-.38,.03-.82-.01-1.13,.25-.27,.26-.28,.67-.29,1.03,0,1.3,0,2.61-.05,3.91,0,.24-.05,.54-.3,.65-.62,.3-1.3,.47-1.98,.59-1.59,.25-3.22,.25-4.8-.07-1.46-.3-2.89-.93-3.96-1.99-.91-.89-1.5-2.08-1.71-3.33-.23-1.37-.17-2.82,.35-4.12,.51-1.28,1.42-2.41,2.58-3.15Z" fill="#274869"/><path d="M60.68,50.03c.96-.12,1.93-.04,2.87,.16,.2,.05,.42,.07,.59,.2,.05,.15,.01,.31,.01,.46-.04,.67-.03,1.33-.04,2-.01,.13-.02,.36-.21,.35-.2,0-.17-.24-.2-.37-.06-.66-.41-1.31-.98-1.67-.63-.43-1.45-.48-2.17-.29-.47,.12-.91,.41-1.15,.83-.37,.64-.3,1.49,.15,2.07,.51,.69,1.23,1.18,1.89,1.72,.89,.68,1.79,1.41,2.4,2.37,.58,.92,.75,2.07,.53,3.13-.23,1.07-.98,2.01-1.97,2.47-.99,.48-2.11,.59-3.19,.54-.68-.05-1.35-.21-1.96-.5-.27-.11-.2-.45-.21-.68,.03-.86,0-1.72,.16-2.57,.03-.22,.36-.11,.33,.08,.03,.53,.13,1.08,.39,1.55,.4,.72,1.19,1.2,2.01,1.26,.57,.04,1.18-.03,1.69-.31,.54-.29,.96-.84,1.04-1.46,.07-.63-.07-1.29-.44-1.81-.52-.75-1.29-1.27-2-1.83-.9-.69-1.77-1.45-2.33-2.44-.59-1.05-.71-2.41-.12-3.48,.58-1.06,1.76-1.63,2.92-1.77Z" fill="#274869"/><path d="M79.84,53.16c.07-.15,.22-.26,.39-.21,.21,.07,.29,.3,.38,.47,1.28,2.84,2.54,5.7,3.82,8.54,.25,.49,.5,1.03,.99,1.33,.31,.19,.68,.1,1.01,.17,.09,.22-.22,.26-.38,.27-.88,.02-1.75,0-2.63-.02-.36-.01-.74,0-1.05-.18,.12-.1,.26-.17,.4-.24-.39-1.03-.82-2.04-1.25-3.05-1.22,0-2.45-.02-3.67,0-.3,.74-.63,1.46-.92,2.21-.07,.27-.22,.63,0,.87,.26,.19,.6,.08,.89,.15,.11,.12,0,.29-.15,.27-.58,.02-1.17-.05-1.75-.04-.64,.01-1.27,.07-1.9,.04-.17,0-.16-.27,0-.28,.3-.03,.63,.02,.9-.14,.46-.21,.68-.69,.86-1.12,1.35-3.01,2.7-6.02,4.05-9.03Zm-1.63,6.31c.99,.01,1.98,0,2.97,0-.47-1.23-.99-2.43-1.48-3.65-.52,1.21-1.01,2.43-1.49,3.64Z" fill="#274869"/><path d="M65.27,53.09c.22-.12,.46,.08,.69,.09,1.01,.11,2.03,.05,3.04,.06,1.62,0,3.24,0,4.87,0,.44,0,.87-.06,1.3-.1,.06,.7-.02,1.4-.03,2.1,.02,.2-.33,.17-.32-.01-.04-.19-.02-.4-.16-.55-.31-.36-.82-.44-1.28-.48-.73-.03-1.47-.04-2.2-.06,.02,2.78-.07,5.57,.08,8.35,.04,.3,0,.69,.27,.9,.37,.19,.8,.11,1.19,.17,.09,.03,.12,.09,.09,.2-.13,.1-.31,.08-.47,.08-1.09,0-2.18-.09-3.27-.02-.39,0-.8,.07-1.17-.03-.16-.05-.08-.25,.06-.24,.27-.04,.59,.02,.83-.16,.21-.18,.25-.48,.27-.74,.05-.77,.04-1.54,.04-2.31v-6.15c-.89,.02-1.77,.04-2.66,.06-.36,.02-.78,.07-1.01,.39-.18,.19-.2,.5-.41,.65-.23-.02-.18-.31-.16-.46,.11-.58,.23-1.17,.4-1.74Z" fill="#274869"/><path d="M53.39,53.34c.41,.02,.81-.13,1.21-.14,.08,.1,.04,.24,.02,.35-.09,.52-.09,1.05-.17,1.57-.01,.15-.21,.36-.32,.17-.06-.27-.05-.59-.25-.81-.24-.28-.64-.29-.98-.31-.78,0-1.56-.05-2.35-.04-.01,.84,0,1.68,0,2.53,0,.37-.03,.75,.03,1.11,.96,0,1.91-.03,2.87-.05,.29,0,.52-.19,.72-.38,.04,0,.13,.02,.18,.03,.05,.46-.09,.9-.09,1.36,0,.34,0,.71-.18,1.01-.1,.05-.16,.03-.2-.07-.05-.24,0-.51-.16-.72-.21-.27-.57-.32-.89-.33-.74-.01-1.49-.05-2.23-.04,0,1.06,0,2.11,0,3.17,0,.35,.07,.76,.39,.96,.38,.23,.85,.23,1.28,.26,.64,.01,1.32,0,1.91-.27,.39-.2,.4-.69,.53-1.05,.05-.16,.24-.13,.27,.03-.02,.6-.09,1.19-.22,1.77-.04,.18-.18,.35-.37,.36-1.87,.09-3.75-.1-5.62-.09-.49,0-1.03,.19-1.48-.04l.04-.15c.31-.12,.72,.04,.97-.24,.26-.31,.22-.75,.24-1.13,.05-2.39,0-4.78,.04-7.17-.02-.36,.03-.76-.16-1.09-.33-.34-.84-.3-1.27-.33-.13,0-.2-.19-.06-.24,.3-.09,.62-.03,.93-.04,1.78,.07,3.57,.03,5.35,.04Z" fill="#274869"/><path d="M22.57,53.51c-.16-.04-.1-.25,.05-.25,.74-.07,1.49,.04,2.23,.02,.53,0,1.07-.06,1.6-.03,.12,0,.22,.07,.3,.15-.02,.21-.25,.17-.4,.19-.29,.02-.65,.06-.8,.35-.13,.3-.12,.64-.14,.97-.02,1.25-.01,2.5-.02,3.76,0,.85-.02,1.7-.25,2.52-.18,.62-.5,1.21-.99,1.65-.86,.77-2.02,1.15-3.16,1.16h-.02c-.67-.02-1.35-.02-2-.18-1.05-.23-2.03-.9-2.51-1.88-.49-1.02-.49-2.17-.48-3.27,0-1.38,0-2.77,0-4.15,0-.26-.02-.6-.29-.73-.37-.23-.81-.14-1.21-.24-.16-.21,.16-.26,.31-.25,.96,0,1.91,.08,2.87,.04,.45-.01,.9-.04,1.35-.04,.14,.01,.35,0,.35,.19-.13,.15-.34,.09-.5,.13-.29,.02-.63,.15-.69,.47-.13,.56-.09,1.14-.1,1.71,0,1.17,0,2.34,0,3.51,.01,.79,.05,1.61,.36,2.34,.27,.63,.84,1.09,1.47,1.33,.56,.22,1.18,.21,1.76,.12,.81-.15,1.59-.66,1.94-1.43,.3-.66,.33-1.4,.35-2.12,0-1.78,.02-3.57-.05-5.35,0-.17-.04-.36-.2-.44-.33-.23-.75-.18-1.13-.24Z" fill="#274869"/><path d="M27.77,53.4c-.01-.14,.17-.14,.26-.16,.9-.03,1.81,.07,2.72,.03,.53-.01,1.07-.06,1.6-.02,.19,0,.17,.32,0,.32-.37,.03-.91,.03-1.03,.47-.16,.67-.09,1.38-.12,2.07,0,2.1-.02,4.19,.03,6.29,.03,.31,0,.73,.31,.9,.4,.16,.85,.12,1.27,.14,.01,.27-.27,.26-.46,.25-.66,0-1.32-.03-1.98-.05-.77-.02-1.54,.05-2.32,.04-.15,.02-.39-.16-.18-.27,.32-.08,.71,.03,.98-.21,.21-.27,.18-.64,.2-.96,.06-2.39,0-4.78,.04-7.17,0-.37,.03-.75-.11-1.1-.12-.3-.48-.38-.77-.38-.16-.01-.4,.02-.43-.19Z" fill="#274869"/><path d="M33.87,53.26c.82-.05,1.64,.04,2.46,.03,1.59-.03,3.19-.12,4.78,.04,1.22,.13,2.46,.48,3.41,1.28,.19,.13,.27,.36,.43,.52,.83,.87,1.28,2.09,1.24,3.29,0,1.49-.63,2.99-1.75,3.98-1.06,.9-2.45,1.33-3.81,1.48-1.68,.19-3.35-.16-5.02-.16-.45,.03-.9,.09-1.36,.06-.1-.01-.18-.05-.26-.11,0-.11,.09-.19,.21-.18,.3-.02,.68,.03,.88-.26,.21-.34,.17-.76,.2-1.14,.05-2.39,0-4.79,.04-7.18-.02-.35,.03-.75-.16-1.06-.34-.34-.86-.29-1.3-.32-.14,0-.15-.27,0-.27Zm4.17,.75c-.23,.04-.5,.02-.68,.18-.04,1.25,.01,2.5-.04,3.75-.05,1.17,0,2.34,.02,3.51-.02,.4,0,.83,.19,1.2,.27,.28,.67,.36,1.04,.43,.74,.1,1.49,.07,2.22-.04,.79-.13,1.54-.51,2.13-1.05,.67-.63,.94-1.56,1.01-2.45,.04-.72,.1-1.46-.11-2.16-.28-.98-.89-1.91-1.78-2.44-1.17-.76-2.61-1.09-4-.93Z" fill="#274869"/><path d="M86.64,53.46c-.07-.18,.16-.22,.29-.22,.93-.02,1.86,.08,2.8,.03,.83,0,1.65-.08,2.48-.02,.68,.07,1.36,.25,1.97,.56,.62,.39,1.03,1.08,1.06,1.81,.04,.55-.15,1.11-.45,1.56-.43,.64-1.02,1.15-1.62,1.64,.92,1.09,1.82,2.18,2.81,3.21,.35,.34,.67,.73,1.11,.97,.41,.23,.86,.39,1.33,.44,.12,0,.29,.21,.15,.29-.25,.09-.53,.03-.79,.05-.75-.03-1.53,.11-2.25-.17-.72-.24-1.25-.82-1.72-1.39-.6-.75-1.22-1.5-1.77-2.29-.14-.17-.25-.43-.5-.44-.48-.03-.96-.05-1.44-.05-.02,1.07,0,2.14,.09,3.21,.03,.24,.04,.54,.28,.67,.31,.13,.66,.11,1,.12,.12-.03,.18,.07,.24,.15-.1,.07-.2,.16-.32,.15-.77,.01-1.54-.03-2.3-.04-.66,0-1.33,.06-1.99,.04-.15,.02-.33-.18-.14-.26,.32-.08,.72,.04,.96-.24,.23-.3,.2-.7,.23-1.06,.06-2.36,0-4.73,.04-7.09,0-.36,.02-.73-.09-1.09-.1-.28-.42-.36-.67-.42-.26-.06-.55,.03-.79-.11Zm3.5,.58s-.05,.06-.07,.08c-.03,1.01,0,2.02-.01,3.02,.02,.46-.04,.93,.03,1.39,.44,.18,.93,.18,1.4,.2,.68,0,1.26-.5,1.55-1.09,.29-.57,.27-1.23,.18-1.85-.1-.58-.41-1.15-.92-1.47-.63-.41-1.43-.4-2.15-.3Z" fill="#274869"/><path d="M96.29,54.63c-.08-.71,.54-1.38,1.25-1.34,.32,.02,.74,.12,.88,.44-.3-.21-.65-.4-1.03-.32-.61,.08-1.06,.72-.93,1.32,.1,.56,.66,1.01,1.24,.93,.56-.06,1.03-.58,1.02-1.14,0-.29-.16-.54-.29-.79,.28,.13,.28,.51,.39,.76v-.17s.01,.21,.01,.21c-.08,.51-.37,1.03-.88,1.18-.73,.27-1.6-.3-1.64-1.08Z" fill="#274869"/><path d="M97.01,55.1c0-.44,.02-.88,.02-1.32,.29,.02,.6-.05,.88,.06,.28,.13,.17,.57-.09,.66,.08-.11,.27-.38,.04-.45-.21-.03-.42-.02-.62-.02,0,.13,0,.26,0,.39,.18,0,.35,0,.53,0v.11c.13,.21,.29,.42,.41,.65-.35,.07-.42-.33-.62-.52-.11-.16-.31-.13-.48-.14-.02,.19-.04,.38-.07,.57Z" fill="#274869"/></svg>