<?xml version="1.0" encoding="UTF-8"?><svg id="a" xmlns="http://www.w3.org/2000/svg" width="16.01" height="14.03" viewBox="0 0 16.01 14.03"><path d="M14.88,5.4h0c-.51,2.16-2.25,4.08-4.02,5.51-.87,.7-1.7,1.25-2.32,1.63-.21,.13-.39,.23-.54,.32-.15-.09-.33-.19-.54-.32-.62-.38-1.45-.93-2.32-1.63-1.77-1.43-3.51-3.35-4.02-5.51h0C.65,3.32,1.65,1.84,2.97,1.26c1.31-.57,3.04-.29,4.19,1.54l.85,1.34,.85-1.34c1.15-1.83,2.88-2.11,4.19-1.54,1.32,.57,2.32,2.06,1.84,4.13h-.01Z" fill="none" stroke="#274869" stroke-width="2"/></svg>