<?xml version="1.0" encoding="UTF-8"?><svg id="a" xmlns="http://www.w3.org/2000/svg" width="16" height="16" viewBox="0 0 16 16"><path d="M3.93,3.66L7.29,.29c.39-.39,1.02-.39,1.41,0l3.36,3.36c.39,.39,.39,1.02,0,1.41-.39,.39-1.02,.39-1.41,0l-1.66-1.66V12c0,.55-.45,1-1,1s-1-.45-1-1V3.41l-1.66,1.66c-.39,.39-1.02,.39-1.41,0-.39-.39-.39-1.02,0-1.41Z" fill="#274869" fill-rule="evenodd"/><path d="M1,8v5c0,1.1,.9,2,2,2H13c1.1,0,2-.9,2-2v-5" fill="none" stroke="#274869" stroke-linecap="round" stroke-width="2"/></svg>